<svg width="20" height="20" viewBox="0 0 20 20" fill="none" xmlns="http://www.w3.org/2000/svg">
<path d="M12.24 8.56001C11.93 9.80001 10 9.17001 9.4 9.00001L9.95 6.82001C10.57 7.00001 12.56 7.26001 12.24 8.56001V8.56001ZM9.13 10.12L8.53 12.53C9.27 12.72 11.56 13.45 11.9 12.09C12.26 10.67 9.87 10.3 9.13 10.12ZM19.7 12.42C18.36 17.78 12.94 21.04 7.58 19.7C2.22 18.36 -1.037 12.94 0.300001 7.58001C0.617644 6.3061 1.18313 5.10724 1.96417 4.05191C2.74521 2.99658 3.72649 2.10544 4.85198 1.42941C5.97747 0.753373 7.22511 0.305678 8.52365 0.111894C9.82218 -0.0818907 11.1462 -0.0179679 12.42 0.300011C17.77 1.64001 21.03 7.06001 19.7 12.42V12.42ZM12.21 6.05001L12.66 4.25001L11.56 4.00001L11.12 5.73001C10.83 5.66001 10.54 5.59001 10.24 5.53001L10.68 3.76001L9.59 3.50001L9.14 5.29001C8.9 5.23001 8.66 5.18001 8.44 5.12001L6.93 4.74001L6.63 5.91001C6.63 5.91001 7.45 6.10001 7.43 6.11001C7.88 6.22001 7.96 6.50001 7.94 6.75001L6.71 11.68C6.66 11.82 6.5 12 6.21 11.95C6.22 11.96 5.41 11.75 5.41 11.75L4.87 13L6.29 13.36C6.56 13.43 6.82 13.5 7.08 13.56L6.62 15.38L7.72 15.66L8.17 13.85C8.47 13.93 8.76 14 9.04 14.08L8.59 15.87L9.69 16.15L10.15 14.33C12 14.68 13.42 14.54 14 12.85C14.5 11.5 14 10.7 13 10.19C13.72 10 14.26 9.55001 14.41 8.57001C14.61 7.24001 13.59 6.53001 12.21 6.05001V6.05001Z" fill="#7952B3"/>
</svg>
