<svg width="18" height="18" viewBox="0 0 18 18" fill="none" xmlns="http://www.w3.org/2000/svg">
<path d="M10 4.5H15V6.5H10V4.5ZM10 11.5H15V13.5H10V11.5ZM16 0C16.5304 0 17.0391 0.210714 17.4142 0.585786C17.7893 0.960859 18 1.46957 18 2V16C18 16.5304 17.7893 17.0391 17.4142 17.4142C17.0391 17.7893 16.5304 18 16 18H2C1.46957 18 0.960859 17.7893 0.585786 17.4142C0.210714 17.0391 0 16.5304 0 16V2C0 1.46957 0.210714 0.960859 0.585786 0.585786C0.960859 0.210714 1.46957 0 2 0H16ZM16 16V2H2V16H16ZM8 3V8H3V3H8ZM7 7V4H4V7H7ZM8 10V15H3V10H8ZM7 14V11H4V14H7Z" fill="#7952B3"/>
</svg>
