<svg width="15" height="16" viewBox="0 0 15 16" fill="none" xmlns="http://www.w3.org/2000/svg">
<path d="M14.3549 14.8499L9.89495 9.65596C10.587 8.61396 10.9614 7.33997 10.9614 5.99997C10.9614 4.39598 10.4239 2.89199 9.45187 1.75799C8.47984 0.623997 7.18494 0 5.80933 0C4.43372 0 3.13883 0.625997 2.1668 1.75799C1.19305 2.88999 0.657232 4.39598 0.657232 5.99997C0.657232 7.60197 1.19477 9.10996 2.1668 10.242C3.13883 11.376 4.432 11.9999 5.80933 11.9999C6.95997 11.9999 8.05221 11.564 8.94696 10.76L13.407 15.9519C13.42 15.9672 13.4356 15.9793 13.4527 15.9875C13.4698 15.9958 13.4881 16 13.5066 16C13.5251 16 13.5434 15.9958 13.5605 15.9875C13.5776 15.9793 13.5931 15.9672 13.6062 15.9519L14.3549 15.0819C14.368 15.0667 14.3784 15.0486 14.3855 15.0287C14.3926 15.0088 14.3962 14.9875 14.3962 14.9659C14.3962 14.9444 14.3926 14.9231 14.3855 14.9032C14.3784 14.8833 14.368 14.8652 14.3549 14.8499ZM8.52964 9.16796C7.80148 10.014 6.83632 10.48 5.80933 10.48C4.78235 10.48 3.81719 10.014 3.08902 9.16796C2.36258 8.31996 1.96243 7.19597 1.96243 5.99997C1.96243 4.80398 2.36258 3.67798 3.08902 2.83199C3.81719 1.98599 4.78235 1.51999 5.80933 1.51999C6.83632 1.51999 7.8032 1.98399 8.52964 2.83199C9.25609 3.67998 9.65623 4.80398 9.65623 5.99997C9.65623 7.19597 9.25609 8.32196 8.52964 9.16796Z" fill="#7952B3"/>
</svg>
