<svg width="1200" height="324" viewBox="0 0 1200 324" fill="none" xmlns="http://www.w3.org/2000/svg">
<path fill-rule="evenodd" clip-rule="evenodd" d="M0 324L22 294C44 264 89 204 133 204C178 204 222 264 267 288C311 312 356 300 400 276C444 252 489 216 533 216C578 216 622 252 667 258C711 264 756 240 800 246C844 252 889 288 933 300C978 312 1022 300 1067 294C1111 288 1156 288 1178 288H1200V0H1178C1156 0 1111 0 1067 0C1022 0 978 0 933 0C889 0 844 0 800 0C756 0 711 0 667 0C622 0 578 0 533 0C489 0 444 0 400 0C356 0 311 0 267 0C222 0 178 0 133 0C89 0 44 0 22 0H0V324Z" fill="#6A33BC"/>
</svg>
